<?xml version="1.0" standalone="no"?>
<!DOCTYPE svg PUBLIC "-//W3C//DTD SVG 20010904//EN"
 "http://www.w3.org/TR/2001/REC-SVG-20010904/DTD/svg10.dtd">
<svg version="1.0" xmlns="http://www.w3.org/2000/svg"
 width="512.000000pt" height="512.000000pt" viewBox="0 0 512.000000 512.000000"
 preserveAspectRatio="xMidYMid meet">
<metadata>
Created by potrace 1.11, written by Peter Selinger 2001-2013
</metadata>
<g transform="translate(0.000000,512.000000) scale(0.100000,-0.100000)"
fill="#000000" stroke="none">
<path d="M2421 5072 c-133 -27 -237 -102 -352 -253 -31 -41 -116 -153 -189
-249 -73 -96 -136 -178 -139 -182 -6 -7 -568 -164 -621 -174 -103 -19 -241
-129 -284 -226 -37 -83 -43 -131 -41 -318 1 -140 5 -186 20 -230 36 -110 110
-194 212 -242 59 -28 164 -51 189 -41 7 2 28 -29 49 -72 134 -280 486 -376
745 -203 77 51 132 115 175 203 l34 70 710 0 711 0 35 -74 c65 -135 208 -247
355 -277 227 -46 461 70 563 278 l35 73 77 2 c204 6 361 132 404 323 5 25 10
130 10 233 0 221 -13 279 -83 374 -40 55 -122 120 -177 142 -13 5 -58 25 -99
44 -116 54 -168 77 -193 86 -16 6 -65 76 -147 208 -211 338 -237 373 -327 432
-48 32 -130 66 -185 77 -18 4 -345 7 -727 8 -541 1 -709 -2 -760 -12z m1511
-245 c70 -34 95 -64 218 -262 248 -398 225 -367 307 -405 37 -18 108 -50 157
-72 275 -121 274 -120 276 -387 1 -151 -2 -186 -16 -213 -34 -66 -92 -100
-177 -102 l-60 -1 -13 54 c-43 165 -205 322 -372 361 -190 44 -380 -20 -509
-171 -44 -52 -103 -163 -103 -195 -1 -51 32 -49 -714 -49 l-695 -1 -12 46
c-83 311 -437 474 -719 330 -131 -67 -236 -196 -270 -333 -11 -41 -14 -44 -43
-41 -46 3 -78 18 -108 48 -51 51 -56 73 -54 254 1 175 8 205 55 252 31 31 47
37 401 134 189 52 356 99 370 104 17 7 104 112 247 300 222 291 267 340 332
360 57 18 58 18 765 17 l680 0 57 -28z m-2147 -1252 c166 -27 268 -227 198
-385 -45 -102 -126 -160 -233 -168 -125 -9 -223 46 -277 155 -64 132 -12 305
112 370 37 19 125 42 145 38 8 -2 33 -6 55 -10z m2410 0 c211 -38 293 -317
138 -472 -186 -186 -505 -39 -480 222 12 129 104 231 230 254 44 8 48 8 112
-4z"/>
<path d="M2808 2765 c-2 -3 -22 -7 -44 -10 -21 -4 -82 -13 -134 -21 -52 -8
-111 -17 -130 -20 -19 -3 -71 -11 -115 -19 -44 -8 -100 -17 -125 -20 -25 -3
-67 -10 -95 -15 -27 -5 -70 -12 -95 -15 -25 -3 -72 -11 -105 -16 -33 -6 -71
-12 -85 -14 -14 -2 -70 -11 -125 -20 -55 -9 -118 -18 -140 -21 -122 -16 -229
-54 -294 -105 -22 -17 -139 -129 -521 -500 -41 -40 -205 -199 -365 -355 -159
-155 -323 -313 -363 -351 l-73 -70 91 -109 c51 -60 102 -120 113 -134 12 -14
56 -65 97 -115 41 -49 85 -101 97 -115 12 -14 99 -117 193 -230 95 -113 184
-219 199 -235 20 -23 148 -177 179 -215 2 -3 18 11 35 30 81 91 203 226 217
240 8 8 71 78 140 155 69 76 132 146 140 155 8 9 38 41 66 72 l52 57 143 5
c165 7 356 14 579 21 85 3 225 7 310 10 85 3 216 8 290 10 482 16 497 17 560
37 78 24 139 67 235 163 89 90 469 484 556 576 19 20 124 130 234 244 293 303
300 312 329 409 16 52 15 170 -2 221 -39 123 -142 226 -266 268 -56 19 -166
22 -217 6 -106 -33 -131 -54 -572 -501 -287 -292 -440 -439 -457 -442 -14 -3
-43 -8 -65 -11 -22 -3 -83 -12 -135 -20 -52 -7 -115 -17 -140 -20 -25 -3 -56
-8 -70 -10 -14 -2 -45 -7 -70 -10 -25 -3 -56 -8 -70 -10 -65 -10 -234 -35
-241 -35 -4 0 -34 37 -68 82 -43 58 -58 84 -49 89 12 6 229 74 483 151 137 41
195 71 253 127 152 149 155 396 6 545 -45 46 -117 91 -163 103 -29 8 -197 14
-203 8z m173 -247 c43 -24 79 -85 79 -134 0 -43 -40 -116 -75 -136 -16 -9
-230 -78 -475 -153 -245 -76 -450 -140 -456 -144 -10 -5 133 -208 219 -311 6
-8 30 -40 52 -70 21 -30 42 -57 45 -60 3 -3 21 -26 40 -52 35 -51 31 -50 130
-33 14 2 45 7 70 10 25 3 72 10 105 15 33 5 83 12 110 16 28 3 57 8 67 9 9 2
38 6 65 10 26 4 59 9 73 11 14 2 59 8 101 14 41 6 86 12 98 15 12 2 55 9 94
14 164 23 131 1 365 239 443 451 688 694 712 706 97 48 222 -22 237 -132 9
-64 -11 -101 -105 -198 -48 -50 -170 -178 -272 -284 -248 -258 -274 -285 -504
-524 -110 -114 -205 -213 -210 -220 -20 -25 -81 -64 -116 -75 -19 -6 -98 -13
-175 -16 -77 -2 -212 -7 -300 -10 -88 -3 -218 -7 -290 -10 -71 -2 -211 -7
-310 -10 -99 -3 -223 -8 -275 -10 -159 -6 -524 -18 -543 -17 -20 1 -35 -13
-141 -131 -38 -43 -78 -88 -90 -100 -148 -163 -193 -212 -206 -227 -85 -97
-116 -130 -121 -130 -3 0 -48 51 -100 113 -51 61 -96 114 -99 117 -3 3 -39 46
-80 95 -41 50 -77 92 -80 95 -3 3 -74 87 -157 186 l-152 182 117 112 c174 168
673 653 856 833 159 155 219 199 291 212 17 2 41 7 55 10 14 3 43 7 65 10 23
2 95 13 160 24 66 11 224 36 350 56 127 20 273 43 325 51 104 17 126 20 185
30 22 3 58 10 80 14 79 15 145 11 186 -12z"/>
</g>
</svg>
